# xmcd
#
# Track frame offsets: 
#        150
#        14016
#        22651
#
# Disc length: 1761 seconds
#
# Revision: 0
# Processed by: cddbd v1.5.2PL0 Copyright (c) Steve Scherf et al.
# Submitted via: ExactAudioCopy v0.99pb4
#
DISCID=1606df03
DTITLE=The Lover's End Trilogy - Moon Safari
DYEAR=2012
DGENRE=Progressive Rock
TTITLE0=Lover's End Pt. I (Alternative Cut)
TTITLE1=Lover's End Pt. II
TTITLE2=Lover's End Pt. III: Skelleftea Serenade
EXTD=
EXTT0=
EXTT1=
EXTT2=
PLAYORDER=
